<svg width="385" height="47" viewBox="0 0 385 47" fill="none" xmlns="http://www.w3.org/2000/svg">
<rect x="0.5" y="0.5" width="384" height="46" rx="11.5" stroke="#487556" stroke-dasharray="4 4"/>
<path d="M193.283 18.2826C193.283 17.8504 192.932 17.5 192.5 17.5C192.068 17.5 191.717 17.8504 191.717 18.2826V22.7174H187.283C186.85 22.7174 186.5 23.0678 186.5 23.5C186.5 23.9322 186.85 24.2826 187.283 24.2826H191.717V28.7174C191.717 29.1496 192.068 29.5 192.5 29.5C192.932 29.5 193.283 29.1496 193.283 28.7174V24.2826H197.717C198.15 24.2826 198.5 23.9322 198.5 23.5C198.5 23.0678 198.15 22.7174 197.717 22.7174H193.283V18.2826Z" fill="#487556"/>
</svg>
