<svg width="16" height="18" viewBox="0 0 16 18" fill="none" xmlns="http://www.w3.org/2000/svg">
<path fill-rule="evenodd" clip-rule="evenodd" d="M14.2027 6.15664C14.5607 6.18612 14.8277 6.49904 14.7991 6.85704C14.7939 6.91599 14.3241 12.7333 14.0536 15.1734C13.8854 16.6878 12.8851 17.6092 11.3751 17.637C10.2196 17.6569 9.10487 17.6682 8.01526 17.6682C6.8407 17.6682 5.69561 17.6552 4.56266 17.6318C3.11332 17.6032 2.11039 16.6635 1.94656 15.1795C1.67351 12.7177 1.20628 6.91512 1.20195 6.85704C1.17248 6.49904 1.43946 6.18525 1.79746 6.15664C2.15027 6.14711 2.46926 6.39502 2.49787 6.75216C2.50063 6.78978 2.69164 9.15938 2.89978 11.5039L2.94159 11.9718C3.04642 13.1371 3.15269 14.2569 3.23901 15.0365C3.33176 15.8799 3.78685 16.3151 4.58953 16.3315C6.75661 16.3775 8.96791 16.3801 11.3517 16.3367C12.2047 16.3203 12.6658 15.8938 12.7612 15.0304C13.0299 12.6085 13.498 6.8111 13.5032 6.75216C13.5318 6.39502 13.8482 6.14537 14.2027 6.15664ZM9.83456 0.331787C10.6303 0.331787 11.3299 0.868357 11.5353 1.63724L11.7555 2.73031C11.8266 3.08864 12.1411 3.35032 12.5052 3.35607L15.3499 3.35617C15.7087 3.35617 16 3.64742 16 4.00629C16 4.36516 15.7087 4.65642 15.3499 4.65642L12.5306 4.65629C12.5262 4.65637 12.5218 4.65642 12.5174 4.65642L12.4963 4.65555L3.50341 4.65631C3.49642 4.65638 3.48942 4.65642 3.48241 4.65642L3.46906 4.65555L0.650125 4.65642C0.291256 4.65642 0 4.36516 0 4.00629C0 3.64742 0.291256 3.35617 0.650125 3.35617L3.4942 3.3553L3.58177 3.34976C3.90795 3.30744 4.17903 3.05971 4.24523 2.73031L4.45587 1.67624C4.66997 0.868357 5.36951 0.331787 6.16526 0.331787H9.83456ZM9.83456 1.63204H6.16526C5.95722 1.63204 5.77432 1.7716 5.72144 1.97183L5.51947 2.98603C5.4938 3.11449 5.45642 3.23829 5.40859 3.3564H10.5915C10.5436 3.23829 10.5061 3.11449 10.4804 2.98603L10.2697 1.93196C10.2255 1.7716 10.0426 1.63204 9.83456 1.63204Z" fill="#FF5A36"/>
</svg>
