<svg width="24" height="24" viewBox="0 0 24 24" fill="none" xmlns="http://www.w3.org/2000/svg">
<mask id="mask0_353_1938" style="mask-type:alpha" maskUnits="userSpaceOnUse" x="2" y="3" width="20" height="19">
<path fill-rule="evenodd" clip-rule="evenodd" d="M2 4.5C2 4.10218 2.15051 3.72064 2.41842 3.43934C2.68633 3.15804 3.04969 3 3.42857 3H20.5714C20.9503 3 21.3137 3.15804 21.5816 3.43934C21.8495 3.72064 22 4.10218 22 4.5C22 4.89782 21.8495 5.27936 21.5816 5.56066C21.3137 5.84196 20.9503 6 20.5714 6H3.42857C3.04969 6 2.68633 5.84196 2.41842 5.56066C2.15051 5.27936 2 4.89782 2 4.5ZM5.14792 12C5.14792 11.6022 5.29843 11.2206 5.56634 10.9393C5.83425 10.658 6.19762 10.5 6.5765 10.5H17.493C17.8719 10.5 18.2352 10.658 18.5031 10.9393C18.771 11.2206 18.9215 11.6022 18.9215 12C18.9215 12.3978 18.771 12.7794 18.5031 13.0607C18.2352 13.342 17.8719 13.5 17.493 13.5H6.5765C6.19762 13.5 5.83425 13.342 5.56634 13.0607C5.29843 12.7794 5.14792 12.3978 5.14792 12ZM8.81964 19.6983C8.81964 19.3005 8.97015 18.919 9.23806 18.6377C9.50597 18.3564 9.86933 18.1983 10.2482 18.1983H13.8241C14.2029 18.1983 14.5663 18.3564 14.8342 18.6377C15.1021 18.919 15.2526 19.3005 15.2526 19.6983C15.2526 20.0962 15.1021 20.4777 14.8342 20.759C14.5663 21.0403 14.2029 21.1983 13.8241 21.1983H10.2482C9.86933 21.1983 9.50597 21.0403 9.23806 20.759C8.97015 20.4777 8.81964 20.0962 8.81964 19.6983Z" fill="#006FFD"/>
</mask>
<g mask="url(#mask0_353_1938)">
<rect x="0.00390625" y="-0.000976562" width="24" height="24" fill="black"/>
</g>
</svg>
