<svg width="58" height="58" viewBox="0 0 58 58" fill="none" xmlns="http://www.w3.org/2000/svg">
<rect x="0.559814" y="0.838867" width="56.88" height="56.88" rx="28.44" fill="#E7E7E7"/>
<path d="M42.0941 29.2087C42.0941 35.4155 42.0941 38.5189 40.1659 40.4471C38.2377 42.3753 35.1342 42.3753 28.9274 42.3753C22.7206 42.3753 19.6172 42.3753 17.689 40.4471C15.7607 38.5189 15.7607 35.4155 15.7607 29.2087C15.7607 23.0018 15.7607 19.8984 17.689 17.9702C19.6172 16.042 22.7206 16.042 28.9274 16.042" stroke="#263238" stroke-width="1.185" stroke-linecap="round"/>
<path d="M15.8323 29.9352L18.1385 27.9172C19.3384 26.8674 21.1467 26.9276 22.274 28.055L27.9222 33.7031C28.827 34.6079 30.2514 34.7313 31.2984 33.9955L31.691 33.7196C33.1976 32.6608 35.2359 32.7835 36.6046 34.0153L40.8489 37.8352" stroke="#263238" stroke-width="1.185" stroke-linecap="round"/>
<path d="M32.9492 20.7187H37.5576M37.5576 20.7187H42.1659M37.5576 20.7187V25.327M37.5576 20.7187V16.1104" stroke="#263238" stroke-width="1.185" stroke-linecap="round"/>
</svg>
