<svg width="24" height="24" viewBox="0 0 24 24" fill="none" xmlns="http://www.w3.org/2000/svg">
<path d="M13.5652 1.56522C13.5652 0.700772 12.8644 0 12 0C11.1356 0 10.4348 0.700772 10.4348 1.56522V10.4348H1.56522C0.700773 10.4348 0 11.1356 0 12C0 12.8644 0.700772 13.5652 1.56522 13.5652H10.4348V22.4348C10.4348 23.2992 11.1356 24 12 24C12.8644 24 13.5652 23.2992 13.5652 22.4348V13.5652H22.4348C23.2992 13.5652 24 12.8644 24 12C24 11.1356 23.2992 10.4348 22.4348 10.4348H13.5652V1.56522Z" fill="#487556"/>
</svg>
