<svg width="32" height="33" viewBox="0 0 32 33" fill="none" xmlns="http://www.w3.org/2000/svg">
<g filter="url(#filter0_d_705_667)">
<g clip-path="url(#clip0_705_667)">
<mask id="mask0_705_667" style="mask-type:alpha" maskUnits="userSpaceOnUse" x="9" y="4" width="14" height="17">
<path d="M20.0003 8.74984C20.0003 10.9589 18.2095 12.7497 16.0004 12.7497C13.7914 12.7497 12.0006 10.9589 12.0006 8.74984C12.0006 6.54079 13.7914 4.75 16.0004 4.75C18.2095 4.75 20.0003 6.54079 20.0003 8.74984Z" fill="#006FFD"/>
<path d="M9.33398 18.0832C9.33398 15.8741 11.1248 14.0833 13.3338 14.0833H18.667C20.876 14.0833 22.6668 15.8741 22.6668 18.0832V18.7498C22.6668 19.8543 21.7714 20.7497 20.6669 20.7497H11.3339C10.2294 20.7497 9.33398 19.8543 9.33398 18.7498V18.0832Z" fill="#006FFD"/>
</mask>
<g mask="url(#mask0_705_667)">
<rect x="8" y="4.74951" width="15.9994" height="15.9994" fill="black"/>
</g>
</g>
<circle cx="16" cy="12.75" r="11.5" stroke="black"/>
</g>
<defs>
<filter id="filter0_d_705_667" x="0" y="0.75" width="32" height="32" filterUnits="userSpaceOnUse" color-interpolation-filters="sRGB">
<feFlood flood-opacity="0" result="BackgroundImageFix"/>
<feColorMatrix in="SourceAlpha" type="matrix" values="0 0 0 0 0 0 0 0 0 0 0 0 0 0 0 0 0 0 127 0" result="hardAlpha"/>
<feOffset dy="4"/>
<feGaussianBlur stdDeviation="2"/>
<feComposite in2="hardAlpha" operator="out"/>
<feColorMatrix type="matrix" values="0 0 0 0 0 0 0 0 0 0 0 0 0 0 0 0 0 0 0.25 0"/>
<feBlend mode="normal" in2="BackgroundImageFix" result="effect1_dropShadow_705_667"/>
<feBlend mode="normal" in="SourceGraphic" in2="effect1_dropShadow_705_667" result="shape"/>
</filter>
<clipPath id="clip0_705_667">
<rect x="8" y="4.75" width="16" height="15.9997" rx="7.99987" fill="white"/>
</clipPath>
</defs>
</svg>
